<?xml version="1.0" encoding="UTF-8" standalone="no"?>
<svg
   xmlns:dc="http://purl.org/dc/elements/1.1/"
   xmlns:cc="http://creativecommons.org/ns#"
   xmlns:rdf="http://www.w3.org/1999/02/22-rdf-syntax-ns#"
   xmlns:svg="http://www.w3.org/2000/svg"
   xmlns="http://www.w3.org/2000/svg"
   xmlns:sodipodi="http://sodipodi.sourceforge.net/DTD/sodipodi-0.dtd"
   xmlns:inkscape="http://www.inkscape.org/namespaces/inkscape"
   version="1.1"
   id="Layer_1"
   x="0px"
   y="0px"
   width="380"
   height="229.64796"
   viewBox="0 0 380 229.64796"
   enable-background="new 0 0 3318 3318"
   xml:space="preserve"
   sodipodi:docname="scattered clouds.svg"
   inkscape:version="1.0 (4035a4fb49, 2020-05-01)"><metadata
     id="metadata9"><rdf:RDF><cc:Work
         rdf:about=""><dc:format>image/svg+xml</dc:format><dc:type
           rdf:resource="http://purl.org/dc/dcmitype/StillImage" /></cc:Work></rdf:RDF></metadata><defs
     id="defs7" /><sodipodi:namedview
     inkscape:current-layer="Layer_1"
     inkscape:window-maximized="0"
     inkscape:window-y="27"
     inkscape:window-x="0"
     inkscape:cy="700.45557"
     inkscape:cx="1254"
     inkscape:zoom="0.16305003"
     showgrid="false"
     id="namedview5"
     inkscape:window-height="480"
     inkscape:window-width="761"
     inkscape:pageshadow="2"
     inkscape:pageopacity="0"
     guidetolerance="10"
     gridtolerance="10"
     objecttolerance="10"
     borderopacity="1"
     bordercolor="#666666"
     pagecolor="#ffffff" /><g
     transform="translate(-405,-958.54443)"
     id="g284"><path
       id="path118"
       d="M 474.7168,1188.1924 C 436.24512,1187.939 405,1156.5342 405,1118.186 c 0,-33.3242 22.98682,-61.1797 54.27881,-68.2627 -0.50879,-2.7993 -0.76416,-5.6557 -0.76416,-8.5591 0,-26.2524 21.35791,-47.6103 47.61084,-47.6103 8.71973,0 17.07764,2.32715 24.36963,6.688 19.98096,-26.42286 50.81201,-41.89747 84.46045,-41.89747 52.58838,0 96.91553,38.73828 104.78027,89.78417 36.39844,2.4522 65.26416,32.8477 65.26416,69.8574 0,38.2222 -31.0957,69.6246 -69.31787,70.001 z m 31.40869,-174.4385 c -15.22461,0 -27.61084,12.3858 -27.61084,27.6104 0,4.3432 0.98584,8.5068 2.93018,12.374 1.52686,3.0371 1.40625,6.6421 -0.32031,9.5708 -1.72656,2.9282 -4.82275,4.7788 -8.21973,4.9131 C 446.04248,1069.2827 425,1091.2295 425,1118.186 c 0,27.3926 22.33252,49.8257 49.78271,50.0064 h 240.80078 c 27.2041,-0.2685 49.4165,-22.6992 49.4165,-50.0014 0,-27.5796 -22.4375,-50.0171 -50.0166,-50.0171 -1.02783,0 -2.14502,0.044 -3.51562,0.1396 -2.65332,0.1851 -5.27393,-0.6973 -7.27686,-2.4492 -2.00293,-1.7524 -3.2251,-4.231 -3.39551,-6.8867 -2.89307,-45.1001 -40.59814,-80.42825 -85.83984,-80.42825 -30.33984,0 -57.85889,15.50879 -73.61377,41.48585 -1.59473,2.6299 -4.31152,4.3794 -7.36572,4.7441 -3.05273,0.3604 -6.10596,-0.6967 -8.2749,-2.8779 -5.22217,-5.251 -12.17431,-8.1426 -19.57568,-8.1426 z"
       fill="#010202" /></g></svg>
