<svg width="380" height="229.65" enable-background="new 0 0 3318 3318" version="1.1" viewBox="0 0 380 229.65" xml:space="preserve" xmlns="http://www.w3.org/2000/svg"><g transform="translate(-405 -958.54)"><path d="m474.72 1188.2c-38.472-0.2534-69.717-31.658-69.717-70.006 0-33.324 22.987-61.18 54.279-68.263-0.50879-2.7993-0.76416-5.6557-0.76416-8.5591 0-26.252 21.358-47.61 47.611-47.61 8.7197 0 17.078 2.3272 24.37 6.688 19.981-26.423 50.812-41.897 84.46-41.897 52.588 0 96.916 38.738 104.78 89.784 36.398 2.4522 65.264 32.848 65.264 69.857 0 38.222-31.096 69.625-69.318 70.001zm31.409-174.44c-15.225 0-27.611 12.386-27.611 27.61 0 4.3432 0.98584 8.5068 2.9302 12.374 1.5269 3.0371 1.4062 6.6421-0.32031 9.5708-1.7266 2.9282-4.8228 4.7788-8.2197 4.9131-26.862 1.0605-47.905 23.007-47.905 49.964 0 27.393 22.333 49.826 49.783 50.006h240.8c27.204-0.2685 49.416-22.699 49.416-50.001 0-27.58-22.438-50.017-50.017-50.017-1.0278 0-2.145 0.044-3.5156 0.1396-2.6533 0.1851-5.2739-0.6973-7.2769-2.4492-2.0029-1.7524-3.2251-4.231-3.3955-6.8867-2.8931-45.1-40.598-80.428-85.84-80.428-30.34 0-57.859 15.509-73.614 41.486-1.5947 2.6299-4.3115 4.3794-7.3657 4.7441-3.0527 0.3604-6.106-0.6967-8.2749-2.8779-5.2222-5.251-12.174-8.1426-19.576-8.1426z" fill="#010202"/></g></svg>
