<?xml version="1.0" encoding="UTF-8" standalone="no"?>
<svg
   xmlns:dc="http://purl.org/dc/elements/1.1/"
   xmlns:cc="http://creativecommons.org/ns#"
   xmlns:rdf="http://www.w3.org/1999/02/22-rdf-syntax-ns#"
   xmlns:svg="http://www.w3.org/2000/svg"
   xmlns="http://www.w3.org/2000/svg"
   xmlns:sodipodi="http://sodipodi.sourceforge.net/DTD/sodipodi-0.dtd"
   xmlns:inkscape="http://www.inkscape.org/namespaces/inkscape"
   version="1.1"
   id="Layer_1"
   x="0px"
   y="0px"
   width="459.75"
   height="420"
   viewBox="0 0 459.75 420"
   enable-background="new 0 0 3318 3318"
   xml:space="preserve"
   sodipodi:docname="few clouds.svg"
   inkscape:version="1.0 (4035a4fb49, 2020-05-01)"><metadata
     id="metadata16"><rdf:RDF><cc:Work
         rdf:about=""><dc:format>image/svg+xml</dc:format><dc:type
           rdf:resource="http://purl.org/dc/dcmitype/StillImage" /></cc:Work></rdf:RDF></metadata><defs
     id="defs14" /><sodipodi:namedview
     inkscape:current-layer="Layer_1"
     inkscape:window-maximized="0"
     inkscape:window-y="27"
     inkscape:window-x="0"
     inkscape:cy="805"
     inkscape:cx="222.75"
     inkscape:zoom="0.16305003"
     showgrid="false"
     id="namedview12"
     inkscape:window-height="480"
     inkscape:window-width="839"
     inkscape:pageshadow="2"
     inkscape:pageopacity="0"
     guidetolerance="10"
     gridtolerance="10"
     objecttolerance="10"
     borderopacity="1"
     bordercolor="#666666"
     pagecolor="#ffffff" /><g
     transform="translate(-1436.25,-854)"
     id="g228"><path
       id="path20"
       d="m 1762.7979,1124.0005 c -2.9083,0 -5.792,-1.2627 -7.7686,-3.6968 -3.4814,-4.2871 -2.8281,-10.5849 1.459,-14.0664 18.8174,-15.2808 29.6094,-37.9302 29.6094,-62.1396 0,-44.11235 -35.8877,-80.00005 -80,-80.00005 -40.8033,0 -74.981,30.52832 -79.5015,71.01125 -0.6128,5.4888 -5.5571,9.4389 -11.0478,8.8291 -5.4883,-0.6133 -9.4415,-5.5596 -8.8282,-11.0484 5.6519,-50.61959 48.3745,-88.79195 99.3775,-88.79195 55.1406,0 100,44.85986 100,100.00005 0,30.2612 -13.4864,58.5693 -37.002,77.665 -1.8535,1.5054 -4.083,2.2378 -6.2978,2.2378 z"
       fill="#010202" /><path
       id="path22"
       d="m 1706,928 c -5.5225,0 -10,-4.47705 -10,-10 v -54 c 0,-5.52295 4.4775,-10 10,-10 5.5225,0 10,4.47705 10,10 v 54 c 0,5.52295 -4.4775,10 -10,10 z"
       fill="#010202" /><path
       id="path24"
       d="m 1580,1054 h -54 c -5.5229,0 -10,-4.477 -10,-10 0,-5.5229 4.4771,-10 10,-10 h 54 c 5.523,0 10,4.4771 10,10 0,5.523 -4.477,10 -10,10 z"
       fill="#010202" /><path
       id="path26"
       d="m 1886,1054 h -54 c -5.5225,0 -10,-4.477 -10,-10 0,-5.5229 4.4775,-10 10,-10 h 54 c 5.5225,0 10,4.4771 10,10 0,5.523 -4.4775,10 -10,10 z"
       fill="#010202" /><path
       id="path28"
       d="m 1794.542,965.45801 c -2.5596,0 -5.1182,-0.97607 -7.0713,-2.92871 -3.9053,-3.90527 -3.9053,-10.2373 0,-14.14258 l 38.7373,-38.7373 c 3.9062,-3.90527 10.2363,-3.90527 14.1426,0 3.9052,3.90527 3.9052,10.2373 0,14.14258 l -38.7373,38.7373 c -1.9531,1.95263 -4.5117,2.92871 -7.0713,2.92871 z"
       fill="#010202" /><path
       id="path30"
       d="m 1617.458,965.45801 c -2.5591,0 -5.1186,-0.97607 -7.0713,-2.92871 l -38.7373,-38.7373 c -3.9048,-3.90527 -3.9048,-10.2373 0,-14.14258 3.9053,-3.90527 10.2373,-3.90527 14.1426,0 l 38.7373,38.7373 c 3.9048,3.90527 3.9048,10.2373 0,14.14258 -1.9526,1.95263 -4.5122,2.92871 -7.0713,2.92871 z"
       fill="#010202" /><path
       id="path32"
       d="m 1833.2793,1181.2793 c -2.5596,0 -5.1182,-0.9761 -7.0713,-2.9287 l -38.7373,-38.7373 c -3.9053,-3.9053 -3.9053,-10.2373 0,-14.1426 3.9063,-3.9053 10.2363,-3.9053 14.1426,0 l 38.7373,38.7373 c 3.9053,3.9053 3.9053,10.2373 0,14.1426 -1.9531,1.9526 -4.5117,2.9287 -7.0713,2.9287 z"
       fill="#010202" /><path
       id="path34"
       d="m 1505.9668,1274 c -38.4717,-0.2534 -69.7168,-31.6582 -69.7168,-70.0064 0,-33.3242 22.9868,-61.1796 54.2788,-68.2627 -0.5088,-2.7993 -0.7641,-5.6557 -0.7641,-8.559 0,-26.2525 21.3579,-47.6104 47.6108,-47.6104 8.7197,0 17.0776,2.3272 24.3696,6.688 19.981,-26.4228 50.812,-41.8974 84.4605,-41.8974 52.5884,0 96.9155,38.7382 104.7807,89.7841 36.3985,2.4522 65.2637,32.8477 65.2637,69.8575 0,38.2221 -31.0957,69.6245 -69.3184,70.0009 z m 31.4087,-174.4385 c -15.2246,0 -27.6109,12.3858 -27.6109,27.6104 0,4.3432 0.9859,8.5068 2.9302,12.374 1.5269,3.0371 1.4063,6.6421 -0.3203,9.5708 -1.7265,2.9282 -4.8227,4.7788 -8.2197,4.9131 -26.8623,1.0605 -47.9048,23.0073 -47.9048,49.9638 0,27.3926 22.3325,49.8257 49.7827,50.0064 h 240.8003 c 27.2041,-0.2685 49.417,-22.6992 49.417,-50.0014 0,-27.5796 -22.4375,-50.0171 -50.0166,-50.0171 -1.0274,0 -2.1445,0.044 -3.5147,0.1396 -2.6464,0.1812 -5.2744,-0.6963 -7.2773,-2.4492 -2.0029,-1.7524 -3.2256,-4.2305 -3.3955,-6.8867 -2.8936,-45.1001 -40.5986,-80.4282 -85.8403,-80.4282 -30.3399,0 -57.8589,15.5088 -73.6138,41.4858 -1.5947,2.6299 -4.3115,4.3794 -7.3657,4.7441 -3.0537,0.3604 -6.106,-0.6967 -8.2749,-2.8779 -5.2222,-5.251 -12.1743,-8.1426 -19.5757,-8.1426 z"
       fill="#010202" /></g></svg>
