<svg width="459.75" height="420" enable-background="new 0 0 3318 3318" version="1.1" viewBox="0 0 459.75 420" xml:space="preserve" xmlns="http://www.w3.org/2000/svg"><g transform="translate(-1436.2 -854)" fill="#010202"><path d="m1762.8 1124c-2.9083 0-5.792-1.2627-7.7686-3.6968-3.4814-4.2871-2.8281-10.585 1.459-14.066 18.817-15.281 29.609-37.93 29.609-62.14 0-44.112-35.888-80-80-80-40.803 0-74.981 30.528-79.502 71.011-0.6128 5.4888-5.5571 9.4389-11.048 8.8291-5.4883-0.6133-9.4415-5.5596-8.8282-11.048 5.6519-50.62 48.374-88.792 99.378-88.792 55.141 0 100 44.86 100 100 0 30.261-13.486 58.569-37.002 77.665-1.8535 1.5054-4.083 2.2378-6.2978 2.2378z"/><path d="m1706 928c-5.5225 0-10-4.477-10-10v-54c0-5.523 4.4775-10 10-10s10 4.477 10 10v54c0 5.523-4.4775 10-10 10z"/><path d="m1580 1054h-54c-5.5229 0-10-4.477-10-10 0-5.5229 4.4771-10 10-10h54c5.523 0 10 4.4771 10 10 0 5.523-4.477 10-10 10z"/><path d="m1886 1054h-54c-5.5225 0-10-4.477-10-10 0-5.5229 4.4775-10 10-10h54c5.5225 0 10 4.4771 10 10 0 5.523-4.4775 10-10 10z"/><path d="m1794.5 965.46c-2.5596 0-5.1182-0.97607-7.0713-2.9287-3.9053-3.9053-3.9053-10.237 0-14.143l38.737-38.737c3.9062-3.9053 10.236-3.9053 14.143 0 3.9052 3.9053 3.9052 10.237 0 14.143l-38.737 38.737c-1.9531 1.9526-4.5117 2.9287-7.0713 2.9287z"/><path d="m1617.5 965.46c-2.5591 0-5.1186-0.97607-7.0713-2.9287l-38.737-38.737c-3.9048-3.9053-3.9048-10.237 0-14.143 3.9053-3.9053 10.237-3.9053 14.143 0l38.737 38.737c3.9048 3.9053 3.9048 10.237 0 14.143-1.9526 1.9526-4.5122 2.9287-7.0713 2.9287z"/><path d="m1833.3 1181.3c-2.5596 0-5.1182-0.9761-7.0713-2.9287l-38.737-38.737c-3.9053-3.9053-3.9053-10.237 0-14.143 3.9063-3.9053 10.236-3.9053 14.143 0l38.737 38.737c3.9053 3.9053 3.9053 10.237 0 14.143-1.9531 1.9526-4.5117 2.9287-7.0713 2.9287z"/><path d="m1506 1274c-38.472-0.2534-69.717-31.658-69.717-70.006 0-33.324 22.987-61.18 54.279-68.263-0.5088-2.7993-0.7641-5.6557-0.7641-8.559 0-26.252 21.358-47.61 47.611-47.61 8.7197 0 17.078 2.3272 24.37 6.688 19.981-26.423 50.812-41.897 84.46-41.897 52.588 0 96.916 38.738 104.78 89.784 36.398 2.4522 65.264 32.848 65.264 69.858 0 38.222-31.096 69.624-69.318 70.001zm31.409-174.44c-15.225 0-27.611 12.386-27.611 27.61 0 4.3432 0.9859 8.5068 2.9302 12.374 1.5269 3.0371 1.4063 6.6421-0.3203 9.5708-1.7265 2.9282-4.8227 4.7788-8.2197 4.9131-26.862 1.0605-47.905 23.007-47.905 49.964 0 27.393 22.332 49.826 49.783 50.006h240.8c27.204-0.2685 49.417-22.699 49.417-50.001 0-27.58-22.438-50.017-50.017-50.017-1.0274 0-2.1445 0.044-3.5147 0.1396-2.6464 0.1812-5.2744-0.6963-7.2773-2.4492-2.0029-1.7524-3.2256-4.2305-3.3955-6.8867-2.8936-45.1-40.599-80.428-85.84-80.428-30.34 0-57.859 15.509-73.614 41.486-1.5947 2.6299-4.3115 4.3794-7.3657 4.7441-3.0537 0.3604-6.106-0.6967-8.2749-2.8779-5.2222-5.251-12.174-8.1426-19.576-8.1426z"/></g></svg>
