<svg width="443.71" height="361.9" enable-background="new 0 0 3318 3318" version="1.1" viewBox="0 0 443.71 361.9" xml:space="preserve" xmlns="http://www.w3.org/2000/svg"><g transform="translate(-2007.2 -890.1)" fill="#010202"><path d="m2077 1252c-38.472-0.2534-69.717-31.658-69.717-70.006 0-33.324 22.986-61.18 54.279-68.262-0.5088-2.7998-0.7646-5.6567-0.7646-8.5595 0-26.252 21.358-47.61 47.61-47.61 8.7207 0 17.078 2.3267 24.37 6.688 19.982-26.423 50.812-41.898 84.46-41.898 52.588 0 96.916 38.738 104.78 89.784 36.398 2.4522 65.264 32.848 65.264 69.857 0 38.222-31.096 69.625-69.318 70.001zm31.408-174.44c-15.225 0-27.61 12.386-27.61 27.61 0 4.3427 0.9863 8.5058 2.9306 12.374 1.5264 3.0371 1.4063 6.6421-0.3203 9.5708-1.7266 2.9282-4.8232 4.7788-8.2197 4.9131-26.862 1.0605-47.905 23.007-47.905 49.964 0 27.393 22.332 49.826 49.782 50.006h240.8c27.204-0.2685 49.417-22.699 49.417-50.001 0-27.58-22.438-50.017-50.017-50.017-1.0273 0-2.1445 0.044-3.5146 0.1396-2.6446 0.1826-5.2745-0.6968-7.2774-2.4492s-3.2256-4.2305-3.3955-6.8867c-2.8935-45.1-40.6-80.428-85.841-80.428-30.339 0-57.858 15.509-73.614 41.486-1.5947 2.6299-4.3115 4.3794-7.3652 4.7436-3.0547 0.3628-6.1055-0.6967-8.2754-2.8779-5.2217-5.251-12.174-8.1426-19.575-8.1426z"/><path d="m2376.2 1127.2c-4.5332 0-8.6386-3.1035-9.7246-7.7075-1.2676-5.3755 2.0625-10.76 7.4385-12.028 18.338-4.3242 34.955-13.736 48.086-27.038-22.942-5.4541-43.849-17.598-60.15-35.183-20.621-22.244-31.978-51.208-31.978-81.558 0-18.658 4.249-36.753 12.402-53.191-23.005 1.9531-44.471 11.725-61.181 28.005-18.742 18.26-29.461 42.697-30.183 68.81-0.1533 5.521-4.7383 9.9106-10.272 9.7197-5.5205-0.1524-9.8721-4.7515-9.7197-10.272 0.8662-31.343 13.728-60.671 36.218-82.582 22.532-21.954 52.27-34.044 83.735-34.044 3.206 0 6.4902 0.1333 9.7588 0.39648 3.5771 0.2876 6.7256 2.4702 8.251 5.7188 1.5244 3.2485 1.1914 7.0649-0.8721 10-11.866 16.877-18.138 36.739-18.138 57.439 0 25.291 9.4629 49.426 26.644 67.96 17.091 18.436 40.246 29.696 65.202 31.708 3.5761 0.2885 6.7246 2.4712 8.249 5.7192 1.5244 3.2486 1.1914 7.065-0.8721 10-16.964 24.128-42.034 41.124-70.592 47.857-0.7714 0.1822-1.5439 0.2696-2.3037 0.2696z"/></g></svg>
