<svg width="350.37" height="246.86" enable-background="new 0 0 3318 3318" version="1.1" viewBox="0 0 350.37 246.86" xml:space="preserve" xmlns="http://www.w3.org/2000/svg"><g transform="translate(-2045.6 -1577)" fill="#010202"><path d="m2335 1712h-253.08c-19.672 0-36.292-16.939-36.292-36.989 0-20.396 16.254-36.99 36.232-36.99 19.963 0 36.203 16.485 36.203 36.747 0 5.5229-4.4775 10-10 10-5.5224 0-10-4.4771-10-10 0-9.0777-7.4199-16.747-16.203-16.747-8.7988 0-16.232 7.7803-16.232 16.99 0 9.209 7.4609 16.989 16.292 16.989h253.08c5.5225 0 10 4.4771 10 10 0 5.523-4.4775 10-10 10z"/><path d="m2386 1669h-204.86c-25.126 0-45.567-20.643-45.567-46.017s20.349-46.018 45.36-46.018c24.955 0 45.257 20.561 45.257 45.833 0 5.523-4.4775 10-10 10-5.5224 0-10-4.477-10-10 0-14.244-11.33-25.833-25.257-25.833-13.983 0-25.36 11.671-25.36 26.018 0 14.103 11.708 26.017 25.567 26.017h204.86c5.5225 0 10 4.4771 10 10 0 5.523-4.4775 10-10 10z"/><path d="m2114.4 1823.8c-12.139 0-23.522-4.6064-32.053-12.971-8.6152-8.4463-13.36-19.79-13.36-31.94 0-24.765 20.418-44.912 45.515-44.912h249.53c5.5225 0 10 4.4775 10 10s-4.4775 10-10 10h-249.53c-14.308 0-25.515 10.942-25.515 24.912 0 13.969 11.163 24.911 25.413 24.911 14.222 0 25.362-11.023 25.362-25.096 0-5.5224 4.4775-10 10-10 5.5224 0 10 4.4776 10 10 0 24.866-20.35 45.096-45.362 45.096z"/></g></svg>
