<?xml version="1.0" encoding="UTF-8" standalone="no"?>
<svg
   xmlns:dc="http://purl.org/dc/elements/1.1/"
   xmlns:cc="http://creativecommons.org/ns#"
   xmlns:rdf="http://www.w3.org/1999/02/22-rdf-syntax-ns#"
   xmlns:svg="http://www.w3.org/2000/svg"
   xmlns="http://www.w3.org/2000/svg"
   xmlns:sodipodi="http://sodipodi.sourceforge.net/DTD/sodipodi-0.dtd"
   xmlns:inkscape="http://www.inkscape.org/namespaces/inkscape"
   version="1.1"
   id="Layer_1"
   x="0px"
   y="0px"
   width="350.37399"
   height="246.85789"
   viewBox="0 0 350.37399 246.85789"
   enable-background="new 0 0 3318 3318"
   xml:space="preserve"
   sodipodi:docname="mist.svg"
   inkscape:version="1.0 (4035a4fb49, 2020-05-01)"><metadata
     id="metadata11"><rdf:RDF><cc:Work
         rdf:about=""><dc:format>image/svg+xml</dc:format><dc:type
           rdf:resource="http://purl.org/dc/dcmitype/StillImage" /></cc:Work></rdf:RDF></metadata><defs
     id="defs9" /><sodipodi:namedview
     inkscape:current-layer="Layer_1"
     inkscape:window-maximized="0"
     inkscape:window-y="27"
     inkscape:window-x="0"
     inkscape:cy="82.0347"
     inkscape:cx="-386.626"
     inkscape:zoom="0.16305003"
     showgrid="false"
     id="namedview7"
     inkscape:window-height="480"
     inkscape:window-width="761"
     inkscape:pageshadow="2"
     inkscape:pageopacity="0"
     guidetolerance="10"
     gridtolerance="10"
     objecttolerance="10"
     borderopacity="1"
     bordercolor="#666666"
     pagecolor="#ffffff" /><g
     transform="translate(-2045.626,-1576.9653)"
     id="g260"><path
       id="path78"
       d="m 2335,1712 h -253.082 c -19.6719,0 -36.292,-16.939 -36.292,-36.9893 0,-20.396 16.2539,-36.9897 36.2324,-36.9897 19.9629,0 36.2031,16.4849 36.2031,36.7471 0,5.5229 -4.4775,10 -10,10 -5.5224,0 -10,-4.4771 -10,-10 0,-9.0777 -7.4199,-16.7471 -16.2031,-16.7471 -8.7988,0 -16.2324,7.7803 -16.2324,16.9897 0,9.209 7.4609,16.9893 16.292,16.9893 H 2335 c 5.5225,0 10,4.4771 10,10 0,5.523 -4.4775,10 -10,10 z"
       fill="#010202" /><path
       id="path80"
       d="m 2386,1669 h -204.8623 c -25.126,0 -45.5674,-20.6431 -45.5674,-46.0171 0,-25.374 20.3487,-46.0176 45.3604,-46.0176 24.9551,0 45.2568,20.5606 45.2568,45.833 0,5.523 -4.4775,10 -10,10 -5.5224,0 -10,-4.477 -10,-10 0,-14.2441 -11.3301,-25.833 -25.2568,-25.833 -13.9834,0 -25.3604,11.6714 -25.3604,26.0176 0,14.1026 11.708,26.0171 25.5674,26.0171 H 2386 c 5.5225,0 10,4.4771 10,10 0,5.523 -4.4775,10 -10,10 z"
       fill="#010202" /><path
       id="path82"
       d="m 2114.3643,1823.8232 c -12.1387,0 -23.5215,-4.6064 -32.0528,-12.9707 -8.6152,-8.4463 -13.3603,-19.79 -13.3603,-31.9404 0,-24.7646 20.418,-44.9121 45.5146,-44.9121 H 2364 c 5.5225,0 10,4.4775 10,10 0,5.5225 -4.4775,10 -10,10 h -249.5342 c -14.3076,0 -25.5146,10.9424 -25.5146,24.9121 0,13.9688 11.1631,24.9111 25.4131,24.9111 14.2216,0 25.3623,-11.0234 25.3623,-25.0957 0,-5.5224 4.4775,-10 10,-10 5.5224,0 10,4.4776 10,10 0,24.8663 -20.3497,45.0957 -45.3623,45.0957 z"
       fill="#010202" /></g></svg>
