<svg width="410" height="438.22" enable-background="new 0 0 3318 3318" version="1.1" viewBox="0 0 410 438.22" xml:space="preserve" xmlns="http://www.w3.org/2000/svg"><g transform="translate(-2574.1 -1482.9)" fill="#010202"><path d="m2639.1 1817.6c-35.852-0.2363-64.966-29.5-64.966-65.233 0-30.79 21.062-56.57 49.845-63.437-0.3906-2.3843-0.5869-4.811-0.5869-7.2734 0-24.603 20.016-44.619 44.618-44.619 7.9297 0 15.539 2.0528 22.227 5.9082 18.553-24.176 46.963-38.317 77.947-38.317 48.584 0 89.57 35.63 97.133 82.69 33.617 2.5928 60.18 30.777 60.18 65.048 0 35.616-28.976 64.877-64.591 65.229zm28.91-160.56c-13.574 0-24.618 11.044-24.618 24.619 0 3.872 0.8789 7.584 2.6123 11.033 1.5273 3.0371 1.4062 6.6421-0.3204 9.5703-1.7265 2.9287-4.8232 4.7788-8.2197 4.9131-24.297 0.9595-43.33 20.812-43.33 45.194 0 24.778 20.201 45.069 45.032 45.233h221.64c24.598-0.2422 44.689-20.532 44.689-45.229 0-24.947-20.296-45.243-45.242-45.243-0.9277 0-1.9384 0.04-3.1806 0.1264-2.6651 0.1856-5.2744-0.6977-7.2764-2.4497-2.0029-1.7519-3.2246-4.2305-3.3955-6.8862-2.6367-41.095-36.994-73.286-78.218-73.286-27.646 0-52.722 14.132-67.079 37.803-1.5947 2.6298-4.3115 4.3793-7.3652 4.7436-3.0527 0.3618-6.1055-0.6968-8.2754-2.8779-4.6553-4.6821-10.854-7.2603-17.454-7.2603z"/><path d="m2921.2 1700.9c-4.2666 0-8.2178-2.751-9.5479-7.0401-1.6367-5.2749 1.3135-10.877 6.5879-12.514 13.819-4.2862 26.483-11.918 36.818-22.036-20.719-5.2119-39.583-16.331-54.362-32.274-19.117-20.622-29.646-47.474-29.646-75.61 0-16.816 3.7226-33.137 10.874-48.035-19.75 1.9941-38.28 10.347-52.948 24.018-16.855 15.71-27.082 36.966-28.794 59.854-0.4111 5.5073-5.2236 9.6465-10.718 9.2261-5.5068-0.4122-9.6377-5.2105-9.2256-10.718 2.0879-27.919 14.554-53.841 35.101-72.992 20.654-19.25 47.587-29.852 75.836-29.852 2.9765 0 6.0205 0.1236 9.0478 0.3677 3.5762 0.2886 6.7246 2.4712 8.249 5.7193 1.5244 3.2485 1.1914 7.0644-0.872 10-10.827 15.399-16.55 33.523-16.55 52.413 0 23.078 8.6347 45.102 24.312 62.014 15.595 16.822 36.725 27.097 59.496 28.933 3.5761 0.2885 6.7246 2.4711 8.249 5.7192 1.5244 3.2485 1.1914 7.0649-0.8721 10-14.116 20.078-34.739 35.121-58.07 42.357-0.9863 0.3057-1.9854 0.4512-2.9658 0.4512z"/><path d="m2729.3 1921.1c-2.5615 0-5.122-0.9776-7.0742-2.9327-3.9033-3.9072-3.9004-10.239 0.01-14.142l23.05-23.026c3.9073-3.9034 10.24-3.9004 14.142 0.01 3.9034 3.9072 3.9004 10.239-0.01 14.142l-23.05 23.026c-1.9521 1.9502-4.5098 2.9258-7.0674 2.9258z"/><path d="m2649.2 1868.7c-2.5616 0-5.1221-0.9775-7.0752-2.9326-3.9024-3.9072-3.8995-10.239 0.01-14.143l14.536-14.52c3.9072-3.9033 10.239-3.8994 14.143 0.01 3.9023 3.9073 3.8994 10.239-0.01 14.143l-14.536 14.52c-1.9521 1.9502-4.5097 2.9248-7.0673 2.9248z"/><path d="m2777.1 1868.7c-2.5615 0-5.1211-0.9775-7.0742-2.9326-3.9033-3.9072-3.9004-10.238 0.01-14.142l14.535-14.52c3.9072-3.9033 10.238-3.9004 14.142 0.01 3.9033 3.9073 3.9004 10.238-0.01 14.142l-14.535 14.521c-1.9522 1.9502-4.5098 2.9257-7.0674 2.9257z"/><path d="m2818.5 1891.8c-2.5615 0-5.123-0.9775-7.0752-2.9336-3.9033-3.9072-3.8994-10.239 0.01-14.142l37.732-37.683c3.9082-3.9043 10.241-3.8994 14.142 0.01 3.9033 3.9073 3.8994 10.239-0.01 14.142l-37.732 37.683c-1.9521 1.9502-4.5097 2.9248-7.0664 2.9248z"/><path d="m2679.6 1901.9c-2.5616 0-5.1221-0.9775-7.0743-2.9326-3.9033-3.9072-3.9004-10.239 0.01-14.142l47.856-47.808c3.9073-3.9033 10.24-3.9004 14.142 0.01 3.9033 3.9073 3.9004 10.239-0.01 14.142l-47.856 47.808c-1.9521 1.9502-4.5097 2.9257-7.0673 2.9257z"/></g></svg>
