<?xml version="1.0" encoding="UTF-8" standalone="no"?>
<svg
   xmlns:dc="http://purl.org/dc/elements/1.1/"
   xmlns:cc="http://creativecommons.org/ns#"
   xmlns:rdf="http://www.w3.org/1999/02/22-rdf-syntax-ns#"
   xmlns:svg="http://www.w3.org/2000/svg"
   xmlns="http://www.w3.org/2000/svg"
   xmlns:sodipodi="http://sodipodi.sourceforge.net/DTD/sodipodi-0.dtd"
   xmlns:inkscape="http://www.inkscape.org/namespaces/inkscape"
   version="1.1"
   id="Layer_1"
   x="0px"
   y="0px"
   width="410.00009"
   height="438.2196"
   viewBox="0 0 410.00009 438.2196"
   enable-background="new 0 0 3318 3318"
   xml:space="preserve"
   sodipodi:docname="night rain.svg"
   inkscape:version="1.0 (4035a4fb49, 2020-05-01)"><metadata
     id="metadata15"><rdf:RDF><cc:Work
         rdf:about=""><dc:format>image/svg+xml</dc:format><dc:type
           rdf:resource="http://purl.org/dc/dcmitype/StillImage" /></cc:Work></rdf:RDF></metadata><defs
     id="defs13" /><sodipodi:namedview
     inkscape:current-layer="Layer_1"
     inkscape:window-maximized="0"
     inkscape:window-y="27"
     inkscape:window-x="0"
     inkscape:cy="176.0894"
     inkscape:cx="-915.1025"
     inkscape:zoom="0.16305003"
     showgrid="false"
     id="namedview11"
     inkscape:window-height="480"
     inkscape:window-width="761"
     inkscape:pageshadow="2"
     inkscape:pageopacity="0"
     guidetolerance="10"
     gridtolerance="10"
     objecttolerance="10"
     borderopacity="1"
     bordercolor="#666666"
     pagecolor="#ffffff" /><g
     transform="translate(-2574.1025,-1482.9106)"
     id="g255"><path
       id="path64"
       d="m 2639.0684,1817.6152 c -35.8516,-0.2363 -64.9659,-29.5 -64.9659,-65.2334 0,-30.79 21.0616,-56.5703 49.8448,-63.437 -0.3906,-2.3843 -0.5869,-4.811 -0.5869,-7.2734 0,-24.603 20.0156,-44.6187 44.6181,-44.6187 7.9297,0 15.5391,2.0528 22.2266,5.9082 18.5527,-24.1762 46.9629,-38.3169 77.9473,-38.3169 48.5839,0 89.5703,35.6304 97.1328,82.6895 33.6172,2.5928 60.1797,30.7769 60.1797,65.0483 0,35.6162 -28.9756,64.877 -64.5909,65.2286 z m 28.9101,-160.5625 c -13.5742,0 -24.6181,11.044 -24.6181,24.6187 0,3.872 0.8789,7.584 2.6123,11.0327 1.5273,3.0371 1.4062,6.6421 -0.3204,9.5703 -1.7265,2.9287 -4.8232,4.7788 -8.2197,4.9131 -24.2969,0.9595 -43.3301,20.8115 -43.3301,45.1943 0,24.7784 20.2012,45.0694 45.0323,45.2334 h 221.6406 c 24.5976,-0.2422 44.6894,-20.5323 44.6894,-45.2286 0,-24.9472 -20.2959,-45.2426 -45.2422,-45.2426 -0.9277,0 -1.9384,0.04 -3.1806,0.1264 -2.6651,0.1856 -5.2744,-0.6977 -7.2764,-2.4497 -2.0029,-1.7519 -3.2246,-4.2305 -3.3955,-6.8862 -2.6367,-41.0948 -36.9941,-73.2857 -78.2178,-73.2857 -27.6455,0 -52.7216,14.1319 -67.0791,37.8033 -1.5947,2.6298 -4.3115,4.3793 -7.3652,4.7436 -3.0527,0.3618 -6.1055,-0.6968 -8.2754,-2.8779 -4.6553,-4.6821 -10.8545,-7.2603 -17.4541,-7.2603 z"
       fill="#010202" /><path
       id="path66"
       d="m 2921.2471,1700.8843 c -4.2666,0 -8.2178,-2.751 -9.5479,-7.0401 -1.6367,-5.2749 1.3135,-10.8774 6.5879,-12.5136 13.8193,-4.2862 26.4834,-11.9175 36.8184,-22.0362 -20.7188,-5.2119 -39.583,-16.331 -54.3623,-32.2739 -19.1172,-20.6216 -29.6455,-47.4741 -29.6455,-75.6103 0,-16.816 3.7226,-33.1373 10.874,-48.0347 -19.75,1.9941 -38.2803,10.3467 -52.9483,24.0176 -16.8554,15.7099 -27.082,36.9663 -28.7939,59.8535 -0.4111,5.5073 -5.2236,9.6465 -10.7178,9.2261 -5.5068,-0.4122 -9.6377,-5.2105 -9.2256,-10.7183 2.0879,-27.919 14.5537,-53.8413 35.1006,-72.9922 20.6543,-19.25 47.5869,-29.8516 75.836,-29.8516 2.9765,0 6.0205,0.1236 9.0478,0.3677 3.5762,0.2886 6.7246,2.4712 8.249,5.7193 1.5244,3.2485 1.1914,7.0644 -0.872,10 -10.8272,15.3994 -16.5498,33.5234 -16.5498,52.4126 0,23.0776 8.6347,45.1015 24.3125,62.0136 15.5947,16.8223 36.7246,27.0972 59.4961,28.9327 3.5761,0.2885 6.7246,2.4711 8.249,5.7192 1.5244,3.2485 1.1914,7.0649 -0.8721,10 -14.1162,20.0776 -34.7393,35.1206 -58.0703,42.3574 -0.9863,0.3057 -1.9854,0.4512 -2.9658,0.4512 z"
       fill="#010202" /><path
       id="path68"
       d="m 2729.2656,1921.127 c -2.5615,0 -5.122,-0.9776 -7.0742,-2.9327 -3.9033,-3.9072 -3.9004,-10.2392 0.01,-14.1416 l 23.0498,-23.0263 c 3.9073,-3.9034 10.2403,-3.9004 14.1416,0.01 3.9034,3.9072 3.9004,10.2393 -0.01,14.1416 l -23.0498,23.0264 c -1.9521,1.9502 -4.5098,2.9258 -7.0674,2.9258 z"
       fill="#010202" /><path
       id="path70"
       d="m 2649.1856,1868.6611 c -2.5616,0 -5.1221,-0.9775 -7.0752,-2.9326 -3.9024,-3.9072 -3.8995,-10.2393 0.01,-14.1426 l 14.5361,-14.5205 c 3.9072,-3.9033 10.2392,-3.8994 14.1426,0.01 3.9023,3.9073 3.8994,10.2393 -0.01,14.1426 l -14.5362,14.5205 c -1.9521,1.9502 -4.5097,2.9248 -7.0673,2.9248 z"
       fill="#010202" /><path
       id="path72"
       d="m 2777.1289,1868.6611 c -2.5615,0 -5.1211,-0.9775 -7.0742,-2.9326 -3.9033,-3.9072 -3.9004,-10.2383 0.01,-14.1416 l 14.5352,-14.5205 c 3.9072,-3.9033 10.2383,-3.9004 14.1416,0.01 3.9033,3.9073 3.9004,10.2383 -0.01,14.1416 l -14.5351,14.5206 c -1.9522,1.9502 -4.5098,2.9257 -7.0674,2.9257 z"
       fill="#010202" /><path
       id="path74"
       d="m 2818.5488,1891.8232 c -2.5615,0 -5.123,-0.9775 -7.0752,-2.9336 -3.9033,-3.9072 -3.8994,-10.2392 0.01,-14.1415 l 37.7315,-37.6827 c 3.9082,-3.9043 10.2412,-3.8994 14.1416,0.01 3.9033,3.9073 3.8994,10.2393 -0.01,14.1416 l -37.7315,37.6826 c -1.9521,1.9502 -4.5097,2.9248 -7.0664,2.9248 z"
       fill="#010202" /><path
       id="path76"
       d="m 2679.5606,1901.9482 c -2.5616,0 -5.1221,-0.9775 -7.0743,-2.9326 -3.9033,-3.9072 -3.9004,-10.2392 0.01,-14.1416 l 47.8564,-47.8076 c 3.9073,-3.9033 10.2403,-3.9004 14.1416,0.01 3.9033,3.9073 3.9004,10.2393 -0.01,14.1416 l -47.8565,47.8077 c -1.9521,1.9502 -4.5097,2.9257 -7.0673,2.9257 z"
       fill="#010202" /></g></svg>
