<svg width="414.75" height="471.92" enable-background="new 0 0 3318 3318" version="1.1" viewBox="0 0 414.75 471.92" xml:space="preserve" xmlns="http://www.w3.org/2000/svg"><g transform="translate(-2567.5 -840.9)" fill="#010202"><path d="m2868.5 1073.5c-2.5156 0-5.0263-0.9927-6.8945-2.9619-3.6104-3.8067-3.4522-9.8194 0.3545-13.43 14.49-13.746 22.471-32.31 22.471-52.275 0-39.722-32.316-72.038-72.038-72.038-34.889 0-64.701 24.873-70.889 59.143-0.9326 5.1621-5.8769 8.5913-11.036 7.6606-5.1641-0.93213-8.5937-5.8735-7.6611-11.037 7.8213-43.323 45.498-74.767 89.586-74.767 50.198 0 91.038 40.839 91.038 91.038 0 25.23-10.084 48.69-28.394 66.059-1.8369 1.7431-4.1895 2.6079-6.5362 2.6079z"/><path d="m2784.3 905.83c-4.3701 0-8.3037-3.0327-9.2724-7.477l-10.019-45.92c-1.1191-5.126 2.1299-10.188 7.2559-11.307 5.1357-1.1196 10.19 2.1314 11.307 7.2568l10.019 45.92c1.1191 5.126-2.1299 10.188-7.2559 11.307-0.6826 0.14892-1.3642 0.22021-2.0342 0.22021z"/><path d="m2923.9 994.6c-4.3701 0-8.3037-3.0327-9.2725-7.477-1.1191-5.126 2.1299-10.188 7.2559-11.307l48.851-10.658c5.1367-1.1196 10.189 2.1314 11.307 7.2568 1.1192 5.126-2.1299 10.188-7.2558 11.307l-48.851 10.658c-0.6827 0.14892-1.3643 0.22021-2.0342 0.22021z"/><path d="m2872.8 921.86c-1.7569 0-3.5342-0.48633-5.1231-1.5059-4.415-2.834-5.6973-8.7109-2.8633-13.126l26.809-41.769c2.834-4.4155 8.71-5.6973 13.127-2.8638 4.415 2.834 5.6972 8.7109 2.8633 13.126l-26.809 41.769c-1.8145 2.8272-4.877 4.3696-8.0039 4.3696z"/><path d="m2716 956.05c-1.7569 0-3.5342-0.48633-5.1221-1.5059l-41.77-26.808c-4.416-2.834-5.6983-8.7109-2.8643-13.126s8.711-5.6973 13.126-2.8638l41.77 26.808c4.4161 2.834 5.6983 8.7109 2.8643 13.126-1.8145 2.8272-4.877 4.3696-8.0039 4.3696z"/><path d="m2947.8 1105.6c-1.7568 0-3.5342-0.4864-5.123-1.5059l-41.769-26.808c-4.415-2.834-5.6972-8.7109-2.8633-13.126 2.834-4.4155 8.71-5.6987 13.127-2.8637l41.768 26.808c4.4151 2.834 5.6973 8.7109 2.8633 13.126-1.8144 2.8272-4.8769 4.3697-8.0039 4.3697z"/><path d="m2631.1 1213.6c-35.099-0.231-63.603-28.88-63.603-63.865 0-30.255 20.77-55.569 49.109-62.18-0.417-2.4292-0.626-4.9048-0.626-7.4189 0-24.027 19.547-43.574 43.574-43.574 7.8457 0 15.372 2.0586 21.965 5.9209 18.193-23.858 46.143-37.82 76.634-37.82 47.744 0 88.007 35.08 95.31 81.369 33.041 2.4067 59.188 30.059 59.188 63.703 0 34.869-28.368 63.516-63.236 63.86zm28.455-158.04c-13.55 0-24.574 11.024-24.574 24.574 0 3.8662 0.877 7.5713 2.6074 11.012 1.4512 2.8857 1.3369 6.3105-0.3037 9.0928-1.6396 2.7822-4.581 4.5405-7.8086 4.6679-24.101 0.9517-42.978 20.642-42.978 44.826 0 24.576 20.037 44.703 44.665 44.865h218.16c24.401-0.2408 44.33-20.365 44.33-44.86 0-24.743-20.131-44.874-44.874-44.874-0.9258 0-1.9277 0.039-3.1553 0.1245-2.5302 0.1797-5.0107-0.6631-6.9121-2.3272-1.9033-1.6645-3.0635-4.019-3.2256-6.542-2.6064-40.628-36.573-72.454-77.33-72.454-27.331 0-52.123 13.972-66.316 37.374-1.5156 2.498-4.0957 4.1601-6.997 4.5063-2.9033 0.3447-5.8018-0.6626-7.8614-2.7334-4.6484-4.6738-10.837-7.2475-17.424-7.2475z"/><path d="m2714.5 1312.8c-2.4327 0-4.8653-0.9287-6.7207-2.7857-3.7081-3.7119-3.7051-9.727 0.01-13.435l22.688-22.665c3.7119-3.7075 9.7266-3.705 13.435 0.01 3.708 3.7119 3.705 9.727-0.01 13.435l-22.688 22.665c-1.8545 1.853-4.2842 2.7793-6.7138 2.7793z"/><path d="m2635.6 1261.2c-2.4326 0-4.8652-0.9287-6.7207-2.7861-3.708-3.7119-3.705-9.7265 0.01-13.435l14.308-14.293c3.7109-3.707 9.7256-3.7046 13.435 0.01 3.708 3.7119 3.7051 9.7266-0.01 13.435l-14.308 14.293c-1.8545 1.8526-4.2842 2.7788-6.7139 2.7788z"/><path d="m2761.6 1261.2c-2.4326 0-4.8652-0.9282-6.7207-2.7856-3.708-3.7119-3.7051-9.727 0.01-13.435l14.307-14.293c3.7119-3.7071 9.7265-3.7056 13.434 0.01 3.708 3.712 3.7051 9.7271-0.01 13.435l-14.307 14.293c-1.8544 1.8525-4.2841 2.7792-6.7138 2.7792z"/><path d="m2802.3 1284c-2.4336 0-4.8662-0.9292-6.7217-2.7866-3.708-3.7124-3.7041-9.7275 0.01-13.435l37.138-37.09c3.7119-3.708 9.7266-3.7036 13.435 0.01 3.708 3.7124 3.7041 9.7275-0.01 13.435l-37.138 37.09c-1.8545 1.8525-4.2832 2.7783-6.7129 2.7783z"/><path d="m2665.5 1293.9c-2.4326 0-4.8652-0.9287-6.7207-2.7856-3.708-3.7119-3.7051-9.727 0.01-13.435l47.104-47.056c3.7119-3.708 9.7265-3.7046 13.434 0.01 3.708 3.712 3.7051 9.7271-0.01 13.435l-47.104 47.056c-1.8545 1.853-4.2842 2.7792-6.7139 2.7792z"/></g></svg>
