<svg width="380" height="336.4" enable-background="new 0 0 3318 3318" version="1.1" viewBox="0 0 380 336.4" xml:space="preserve" xmlns="http://www.w3.org/2000/svg"><g transform="translate(-935 -1534.5)" fill="#010202"><path d="m1245.6 1764.1h-10.584l-230.28-0.0908c-38.442 0-69.717-31.361-69.717-69.911 0-33.276 22.986-61.094 54.279-68.168-0.5083-2.7988-0.76416-5.6553-0.76416-8.5576 0-26.253 21.358-47.611 47.611-47.611 8.7207 0 17.078 2.3262 24.369 6.6871 19.982-26.425 50.814-41.901 84.461-41.901 52.585 0 96.91 38.728 104.78 89.766 36.402 2.4482 65.266 32.834 65.266 69.834 0 38.196-31.096 69.577-69.318 69.952-0.034 1e-3 -0.068 1e-3 -0.102 1e-3zm-10.576-20.004h10.532c27.28-0.2949 49.465-22.693 49.465-49.953 0-27.566-22.438-49.993-50.017-49.993-1.1787 0-2.4385 0.077-3.5156 0.1514-2.6514 0.1865-5.2735-0.6968-7.2769-2.4492-2.0029-1.7525-3.2251-4.231-3.3955-6.8867-2.8926-45.097-40.598-80.422-85.84-80.422-30.338 0-57.857 15.51-73.614 41.489-1.5947 2.6298-4.3115 4.3793-7.3657 4.7441-3.0552 0.3599-6.106-0.6968-8.2749-2.8779-5.2212-5.25-12.173-8.1411-19.576-8.1411-15.225 0-27.611 12.386-27.611 27.611 0 4.3437 0.9858 8.5068 2.9301 12.374 1.5269 3.0371 1.4063 6.6421-0.3203 9.5708-1.7265 2.9282-4.8227 4.7788-8.2197 4.9131-26.862 1.0644-47.905 22.969-47.905 49.872 0 27.521 22.303 49.911 49.717 49.911h10.283z"/><path d="m1090 1870.9c-2.561 0-5.1216-0.9776-7.0747-2.9327-3.9033-3.9072-3.8999-10.239 0.01-14.142l25.042-25.017c3.9077-3.9033 10.239-3.9004 14.142 0.01 3.9033 3.9072 3.8999 10.239-0.01 14.142l-25.042 25.017c-1.9522 1.9502-4.5103 2.9258-7.0674 2.9258z"/><path d="m1003 1813.9c-2.561 0-5.1216-0.9776-7.0747-2.9327-3.9033-3.9072-3.8999-10.238 7e-3 -14.142l15.792-15.776c3.9072-3.9034 10.239-3.9004 14.142 0.01 3.9033 3.9072 3.8999 10.238-0.01 14.142l-15.792 15.776c-1.9522 1.9502-4.5098 2.9258-7.0674 2.9258z"/><path d="m1142 1813.9c-2.561 0-5.1216-0.9776-7.0747-2.9327-3.9033-3.9072-3.8999-10.238 0.01-14.142l15.792-15.776c3.9072-3.9034 10.239-3.9004 14.142 0.01 3.9033 3.9072 3.8999 10.238-0.01 14.142l-15.792 15.776c-1.9522 1.9502-4.5098 2.9258-7.0674 2.9258z"/><path d="m1187 1839.1c-2.5615 0-5.1225-0.9775-7.0757-2.9335-3.9028-3.9073-3.8984-10.239 0.01-14.142l40.992-40.94c3.9077-3.9033 10.239-3.8994 14.142 0.01 3.9028 3.9072 3.8984 10.239-0.01 14.142l-40.992 40.939c-1.9521 1.9502-4.5093 2.9248-7.0664 2.9248z"/><path d="m1036 1850.1c-2.561 0-5.1216-0.9775-7.0747-2.9326-3.9033-3.9072-3.8999-10.238 0.01-14.142l51.992-51.939c3.9072-3.9033 10.239-3.9004 14.142 0.01 3.9033 3.9072 3.8999 10.238-0.01 14.142l-51.992 51.94c-1.9522 1.9502-4.5103 2.9257-7.0674 2.9257z"/></g></svg>
