<svg width="220.04" height="240" enableBackground="new 0 0 3318 3318" version="1.1" viewBox="0 0 220.04 240" xml:space="preserve" xmlns="http://www.w3.org/2000/svg"><g transform="translate(-1555.9 -2174.1)"><path d="m1675.9 2414.1c-66.168 0-120-53.832-120-120 0-66.168 53.832-120 120-120 3.2056 0 6.4898 0.1337 9.7608 0.3974 3.5771 0.2891 6.7246 2.4717 8.249 5.7197 1.5244 3.2481 1.1914 7.0645-0.8721 10-11.866 16.876-18.138 36.738-18.138 57.438 0 25.291 9.4624 49.426 26.644 67.96 17.09 18.436 40.246 29.696 65.202 31.708 3.5762 0.2881 6.7246 2.4707 8.249 5.7197 1.5244 3.2481 1.1914 7.0645-0.8721 10-22.478 31.97-59.197 51.057-98.224 51.057zm-8.5991-219.63c-51.128 4.3769-91.401 47.392-91.401 99.634 0 55.141 44.86 100 100 100 26.891 0 52.468-10.876 71.112-29.708-22.936-5.4561-43.837-17.599-60.135-35.179-20.621-22.244-31.978-51.208-31.978-81.558 0-18.658 4.2481-36.752 12.401-53.189z" fill="currentColor"/></g></svg>
