<svg width="380" height="380" version="1.1" xml:space="preserve" xmlns="http://www.w3.org/2000/svg"><g transform="translate(-935,-884)" fill="#010202"><path d="m1125.1 1174.1c-55.14 0-100-44.86-100-100 0-55.14 44.86-100 100-100 55.14 0 100 44.86 100 100 0 55.14-44.86 100-100 100zm0-180c-44.112 0-80 35.888-80 80s35.888 80 80 80 80-35.888 80-80-35.888-80-80-80z"/><path d="m1125 958c-5.5229 0-10-4.477-10-10v-54c0-5.523 4.4771-10 10-10 5.523 0 10 4.477 10 10v54c0 5.523-4.477 10-10 10z"/><path d="m1125 1264c-5.5229 0-10-4.477-10-10v-54c0-5.5229 4.4771-10 10-10 5.523 0 10 4.4771 10 10v54c0 5.523-4.477 10-10 10z"/><path d="m999 1084h-54c-5.523 0-10-4.477-10-10 0-5.5229 4.477-10 10-10h54c5.523 0 10 4.4771 10 10 0 5.523-4.477 10-10 10z"/><path d="m1305 1084h-54c-5.5229 0-10-4.477-10-10 0-5.5229 4.4771-10 10-10h54c5.523 0 10 4.4771 10 10 0 5.523-4.477 10-10 10z"/><path d="m1213.5 995.46c-2.5591 0-5.1187-0.97607-7.0713-2.9287-3.9048-3.9053-3.9048-10.237 0-14.143l38.737-38.737c3.9053-3.9053 10.237-3.9053 14.143 0 3.9048 3.9053 3.9048 10.237 0 14.143l-38.737 38.737c-1.9527 1.9526-4.5122 2.9287-7.0713 2.9287z"/><path d="m997.72 1211.3c-2.5591 0-5.1186-0.9761-7.0713-2.9287-3.9048-3.9053-3.9048-10.237 0-14.143l38.737-38.737c3.9053-3.9053 10.237-3.9053 14.143 0 3.9048 3.9053 3.9048 10.237 0 14.143l-38.737 38.737c-1.9526 1.9526-4.5122 2.9287-7.0713 2.9287z"/><path d="m1036.5 995.46c-2.5591 0-5.1186-0.97607-7.0713-2.9287l-38.737-38.737c-3.9048-3.9053-3.9048-10.237 0-14.143 3.9053-3.9053 10.237-3.9053 14.143 0l38.737 38.737c3.9048 3.9053 3.9048 10.237 0 14.143-1.9526 1.9526-4.5122 2.9287-7.0713 2.9287z"/><path d="m1252.3 1211.3c-2.5591 0-5.1186-0.9761-7.0713-2.9287l-38.737-38.737c-3.9048-3.9053-3.9048-10.237 0-14.143 3.9053-3.9053 10.237-3.9053 14.143 0l38.737 38.737c3.9048 3.9053 3.9048 10.237 0 14.143-1.9526 1.9526-4.5122 2.9287-7.0713 2.9287z"/></g></svg>
