<?xml version="1.0" encoding="UTF-8" standalone="no"?>
<svg
   xmlns:dc="http://purl.org/dc/elements/1.1/"
   xmlns:cc="http://creativecommons.org/ns#"
   xmlns:rdf="http://www.w3.org/1999/02/22-rdf-syntax-ns#"
   xmlns:svg="http://www.w3.org/2000/svg"
   xmlns="http://www.w3.org/2000/svg"
   xmlns:sodipodi="http://sodipodi.sourceforge.net/DTD/sodipodi-0.dtd"
   xmlns:inkscape="http://www.inkscape.org/namespaces/inkscape"
   xml:space="preserve"
   inkscape:version="1.0 (4035a4fb49, 2020-05-01)"
   version="1.1"
   id="Layer_1"
   y="0px"
   width="380"
   height="380"
   sodipodi:docname="clear sky.svg"><metadata
     id="metadata17"><rdf:RDF><cc:Work
         rdf:about=""><dc:format>image/svg+xml</dc:format><dc:type
           rdf:resource="http://purl.org/dc/dcmitype/StillImage" /></cc:Work></rdf:RDF></metadata><defs
     id="defs15" /><sodipodi:namedview
     inkscape:current-layer="Layer_1"
     inkscape:window-maximized="1"
     inkscape:window-y="27"
     inkscape:window-x="0"
     inkscape:cy="381.85966"
     inkscape:cx="1050.9432"
     inkscape:zoom="0.16305003"
     showgrid="false"
     id="namedview13"
     inkscape:window-height="713"
     inkscape:window-width="1366"
     inkscape:pageshadow="2"
     inkscape:pageopacity="0"
     guidetolerance="10"
     gridtolerance="10"
     objecttolerance="10"
     borderopacity="1"
     bordercolor="#666666"
     pagecolor="#ffffff" /><g
     transform="translate(-935,-884)"
     id="g218"><path
       style="display:inline"
       id="path2"
       d="m 1125.0977,1174.0977 c -55.1402,0 -100,-44.8599 -100,-100 0,-55.1402 44.8598,-100.00004 100,-100.00004 55.1401,0 100,44.85984 100,100.00004 0,55.1401 -44.8599,100 -100,100 z m 0,-180.00004 c -44.1123,0 -80,35.88774 -80,80.00004 0,44.1123 35.8877,80 80,80 44.1123,0 80,-35.8877 80,-80 0,-44.1123 -35.8877,-80.00004 -80,-80.00004 z"
       fill="#010202" /><path
       id="path4"
       d="m 1125,958 c -5.5229,0 -10,-4.47705 -10,-10 v -54 c 0,-5.52295 4.4771,-10 10,-10 5.523,0 10,4.47705 10,10 v 54 c 0,5.52295 -4.477,10 -10,10 z"
       fill="#010202" /><path
       id="path6"
       d="m 1125,1264 c -5.5229,0 -10,-4.477 -10,-10 v -54 c 0,-5.5229 4.4771,-10 10,-10 5.523,0 10,4.4771 10,10 v 54 c 0,5.523 -4.477,10 -10,10 z"
       fill="#010202" /><path
       id="path8"
       d="m 999,1084 h -54 c -5.52295,0 -10,-4.477 -10,-10 0,-5.5229 4.47705,-10 10,-10 h 54 c 5.523,0 10,4.4771 10,10 0,5.523 -4.477,10 -10,10 z"
       fill="#010202" /><path
       id="path10"
       d="m 1305,1084 h -54 c -5.5229,0 -10,-4.477 -10,-10 0,-5.5229 4.4771,-10 10,-10 h 54 c 5.523,0 10,4.4771 10,10 0,5.523 -4.477,10 -10,10 z"
       fill="#010202" /><path
       id="path12"
       d="m 1213.542,995.45801 c -2.5591,0 -5.1187,-0.97607 -7.0713,-2.92871 -3.9048,-3.90527 -3.9048,-10.2373 0,-14.14258 l 38.7373,-38.7373 c 3.9053,-3.90527 10.2373,-3.90527 14.1426,0 3.9048,3.90527 3.9048,10.2373 0,14.14258 l -38.7373,38.7373 c -1.9527,1.95263 -4.5122,2.92871 -7.0713,2.92871 z"
       fill="#010202" /><path
       id="path14"
       d="m 997.7207,1211.2793 c -2.55908,0 -5.11865,-0.9761 -7.07129,-2.9287 -3.90479,-3.9053 -3.90479,-10.2373 0,-14.1426 l 38.73729,-38.7373 c 3.9053,-3.9053 10.2373,-3.9053 14.1426,0 3.9048,3.9053 3.9048,10.2373 0,14.1426 l -38.7373,38.7373 c -1.9526,1.9526 -4.5122,2.9287 -7.0713,2.9287 z"
       fill="#010202" /><path
       id="path16"
       d="m 1036.458,995.45801 c -2.5591,0 -5.1186,-0.97607 -7.0713,-2.92871 L 990.64942,953.792 c -3.90479,-3.90527 -3.90479,-10.2373 0,-14.14258 3.90527,-3.90527 10.23728,-3.90527 14.14258,0 l 38.7373,38.7373 c 3.9048,3.90527 3.9048,10.2373 0,14.14258 -1.9526,1.95263 -4.5122,2.92871 -7.0713,2.92871 z"
       fill="#010202" /><path
       id="path18"
       d="m 1252.2793,1211.2793 c -2.5591,0 -5.1186,-0.9761 -7.0713,-2.9287 l -38.7373,-38.7373 c -3.9048,-3.9053 -3.9048,-10.2373 0,-14.1426 3.9053,-3.9053 10.2373,-3.9053 14.1426,0 l 38.7373,38.7373 c 3.9048,3.9053 3.9048,10.2373 0,14.1426 -1.9526,1.9526 -4.5122,2.9287 -7.0713,2.9287 z"
       fill="#010202" /></g></svg>
