<svg width="380" height="383.46" enable-background="new 0 0 3318 3318" version="1.1" viewBox="0 0 380 383.46" xml:space="preserve" xmlns="http://www.w3.org/2000/svg"><g transform="translate(-1475 -1512.5)" fill="#010202"><path d="m1785.6 1742.1h-10.584l-230.28-0.0908c-38.442 0-69.717-31.361-69.717-69.911 0-33.276 22.986-61.094 54.279-68.168-0.5083-2.7988-0.7641-5.6553-0.7641-8.5576 0-26.253 21.358-47.611 47.611-47.611 8.7207 0 17.078 2.3262 24.369 6.6871 19.982-26.425 50.814-41.901 84.461-41.901 52.584 0 96.91 38.728 104.78 89.766 36.402 2.4482 65.266 32.834 65.266 69.834 0 38.196-31.097 69.577-69.318 69.952-0.034 1e-3 -0.068 1e-3 -0.1025 1e-3zm-10.576-20.004h10.531c27.28-0.2949 49.466-22.694 49.466-49.953 0-27.566-22.438-49.993-50.017-49.993-1.1787 0-2.4385 0.077-3.5146 0.1514-2.6426 0.1821-5.2735-0.6968-7.2774-2.4492-2.0029-1.7525-3.2256-4.231-3.3955-6.8867-2.8936-45.097-40.599-80.422-85.84-80.422-30.338 0-57.858 15.51-73.614 41.489-1.5947 2.6298-4.3115 4.3793-7.3657 4.7441-3.0523 0.3623-6.106-0.6968-8.2749-2.8779-5.2212-5.25-12.173-8.1411-19.576-8.1411-15.225 0-27.611 12.386-27.611 27.611 0 4.3437 0.9858 8.5068 2.9301 12.374 1.5269 3.0371 1.4063 6.6421-0.3203 9.5708-1.7265 2.9282-4.8227 4.7788-8.2197 4.9131-26.862 1.0605-47.905 22.965-47.905 49.868 0 27.521 22.303 49.911 49.717 49.911h10.283z"/><path d="m1569 1877.1c-2.561 0-5.1215-0.9775-7.0747-2.9326-3.9033-3.9072-3.8999-10.238 0.01-14.142l61.903-61.841c3.9072-3.9024 10.239-3.9004 14.142 0.01 3.9033 3.9072 3.8999 10.238-0.01 14.142l-61.903 61.841c-1.9521 1.9502-4.5097 2.9258-7.0674 2.9258z"/><path d="m1630.9 1877.1c-2.561 0-5.1216-0.9776-7.0747-2.9327l-61.841-61.903c-3.9033-3.9072-3.8999-10.238 0.01-14.142 3.9077-3.9023 10.239-3.9004 14.142 0.01l61.841 61.903c3.9033 3.9072 3.8999 10.238-0.01 14.142-1.9521 1.9502-4.5098 2.9258-7.0674 2.9258z"/><path d="m1650 1846-100 0.029c-5.5229 0-9.998-4.4971-9.9951-10.02 0-5.5215 4.4795-10.01 10-10.01l100 0.104c5.5229 0 9.998 4.4304 9.9951 9.9529 0 5.5205-4.48 9.9431-10 9.9431z"/><path d="m1599.9 1896c-5.5229 0-9.998-4.416-9.9951-9.9385l0.051-100.03c0-5.5215 4.48-10.028 10-10.028 5.5229 0 9.998 4.5488 9.9951 10.071l-0.051 99.967c0 5.5215-4.48 9.9619-10 9.9619z"/><path d="m1707.7 1832.7c-3.4453 0-6.7968-1.7813-8.6533-4.9736-2.7773-4.7735-1.1592-10.895 3.6153-13.672l60.506-35.199c4.7744-2.7813 10.896-1.1592 13.672 3.6152 2.7773 4.7734 1.1592 10.894-3.6152 13.672l-60.506 35.199c-1.582 0.9209-3.3115 1.3584-5.0186 1.3584z"/><path d="m1768.7 1831.8c-1.6113 0-3.2451-0.3906-4.7617-1.2129l-61.523-33.391c-4.8535-2.6348-6.6533-8.7051-4.0186-13.56 2.6338-4.8535 8.7031-6.6523 13.56-4.0185l61.523 33.391c4.8535 2.6347 6.6533 8.7051 4.0186 13.56-1.8115 3.3379-5.249 5.2315-8.7979 5.2315z"/><path d="m1737.9 1850c-5.5234 0-9.998-4.71-9.9951-10.232l0.035-68.798c0-5.5214 4.4795-9.9697 10-9.9697 5.5234 0 9.998 4.3433 9.9951 9.8657l-0.035 68.981c0 5.5215-4.4795 10.153-10 10.153z"/></g></svg>
