<svg width="380" height="336.4" enable-background="new 0 0 3318 3318" version="1.1" viewBox="0 0 380 336.4" xml:space="preserve" xmlns="http://www.w3.org/2000/svg"><g transform="translate(-405 -1534.5)" fill="#010202"><path d="m715.58 1764.1h-10.584c-5.5225 0-9.998-4.4805-9.9961-10.004 2e-3 -5.5215 4.479-9.9961 10-9.9961h4e-3 10.532c27.28-0.2949 49.465-22.693 49.465-49.953 0-27.566-22.438-49.993-50.017-49.993-1.1787 0-2.4385 0.077-3.5156 0.1514-2.6533 0.1865-5.2739-0.6968-7.2769-2.4492-2.0029-1.7525-3.2251-4.231-3.3955-6.8867-2.8926-45.097-40.598-80.422-85.84-80.422-30.338 0-57.857 15.51-73.614 41.489-1.5947 2.6298-4.3115 4.3793-7.3657 4.7441-3.0527 0.3599-6.106-0.6968-8.2749-2.8779-5.2212-5.25-12.173-8.1411-19.576-8.1411-15.225 0-27.611 12.386-27.611 27.611 0 4.3437 0.98584 8.5068 2.9302 12.374 1.5269 3.0371 1.4062 6.6421-0.32031 9.5708-1.7266 2.9282-4.8228 4.7788-8.2197 4.9131-26.862 1.0605-47.905 22.965-47.905 49.868 0 27.521 22.303 49.911 49.717 49.911h10.283c5.523 0 10 4.4775 10 10s-4.477 10-10 10h-10.283c-38.442 0-69.717-31.361-69.717-69.911 0-33.276 22.986-61.094 54.279-68.168-0.5083-2.7988-0.76416-5.6553-0.76416-8.5576 0-26.253 21.358-47.611 47.611-47.611 8.7207 0 17.078 2.3262 24.369 6.6871 19.982-26.425 50.814-41.901 84.461-41.901 52.585 0 96.91 38.728 104.78 89.766 36.402 2.4482 65.266 32.834 65.266 69.834 0 38.196-31.096 69.577-69.318 69.952-0.0337 9e-4 -0.0679 9e-4 -0.10205 9e-4z"/><path d="m501.03 1858.1c-2.5571 0-5.1138-0.9746-7.0659-2.9239-3.9082-3.9023-3.9126-10.234-0.0103-14.142l42.958-43.019h-25.882c-4.0918 0-7.7705-2.4922-9.2876-6.293-1.5166-3.7998-0.56543-8.1406 2.4014-10.958l63-59.829c4.0049-3.8027 10.334-3.6416 14.137 0.3653 3.8032 4.0039 3.6401 10.334-0.36475 14.137l-44.834 42.578h24.948c4.0435 0 7.689 2.4346 9.2373 6.1699 1.5488 3.7354 0.6958 8.0352-2.1611 10.896l-60 60.085c-1.9531 1.9551-4.5146 2.9336-7.0762 2.9336z"/><path d="m602.96 1822.9c-2.561 0-5.1216-0.9776-7.0747-2.9327-3.9033-3.9072-3.8999-10.238 7e-3 -14.142l42.909-42.865h-25.841c-4.0874 0-7.7632-2.4873-9.2827-6.2812-1.52-3.794-0.57812-8.1319 2.3789-10.953l63-60.121c3.9956-3.8125 10.325-3.6655 14.138 0.3306 3.813 3.9956 3.665 10.325-0.33057 14.138l-44.94 42.887h25.037c4.0454 0 7.6924 2.4375 9.2398 6.1758 1.5474 3.7373 0.68994 8.04-2.1724 10.898l-60 59.94c-1.9522 1.9502-4.5098 2.9258-7.0674 2.9258z"/><path d="m551.96 1870.9c-2.561 0-5.1216-0.9776-7.0747-2.9327-3.9033-3.9072-3.8999-10.239 7e-3 -14.142l25.042-25.017c3.9072-3.9033 10.239-3.9004 14.142 0.01 3.9033 3.9072 3.8999 10.239-7e-3 14.142l-25.042 25.017c-1.9522 1.9502-4.5102 2.9258-7.0674 2.9258z"/><path d="m460.96 1837.9c-2.561 0-5.1216-0.9776-7.0747-2.9327-3.9033-3.9072-3.8999-10.238 7e-3 -14.142l15.792-15.776c3.9072-3.9024 10.239-3.8994 14.142 0.01 3.9033 3.9072 3.8999 10.238-7e-3 14.142l-15.792 15.776c-1.9522 1.9502-4.5098 2.9258-7.0674 2.9258z"/><path d="m639.96 1851.9c-2.561 0-5.1216-0.9776-7.0747-2.9327-3.9033-3.9072-3.8999-10.238 7e-3 -14.142l51.992-51.939c3.9072-3.9033 10.239-3.9004 14.142 0.01 3.9033 3.9073 3.8999 10.238-7e-3 14.142l-51.992 51.94c-1.9522 1.9502-4.5102 2.9258-7.0674 2.9258z"/></g></svg>
